
<svg width="277px" height="122.679455px" viewBox="0 0 277 122.679455" version="1.1" xmlns="http://www.w3.org/2000/svg" xmlns:xlink="http://www.w3.org/1999/xlink">
    <g id="Page-1" stroke="none" stroke-width="1" fill="none" fill-rule="evenodd">
        <g id="logo-dark">
            <g id="Group" transform="translate(140.3205, 0)">
                <rect id="蒙版" x="16.6794552" y="0" width="120" height="120"></rect>
                <g transform="translate(59.6795, 63) rotate(45) translate(-59.6795, -63)translate(14.6795, 23.6005)" fill="#FFFFFF" fill-rule="nonzero" id="Shape">
                    <path d="M14.3205882,42.8060461 C13.313723,33.9084792 16.0744453,24.995143 21.9049682,18.3189301 C27.735491,11.6427172 36.0778716,7.84249742 44.8235294,7.87879624 C49.9206294,7.87303102 54.9379759,9.17477377 59.4176471,11.6652174 L67.3588235,7.51732405 C55.6825347,-1.17999984 40.227892,-2.42895849 27.3642282,4.2851823 C14.5005644,10.9993231 6.40528604,24.5400742 6.41470588,39.3268763 C6.41470588,40.5106977 6.46764706,41.6854823 6.56470588,42.8421933 C6.79071191,45.1319733 5.61533566,47.3275361 3.60882353,48.363681 L1.57821548e-14,50.1710419 L1.57821548e-14,59 L90,12.5869714 L90,3.75801333 L14.3205882,42.8060461 Z M90,19.7989899 L2.99930096e-14,66.1220274 L2.99930096e-14,74.9304368 L75.3176471,36.1626164 C75.4501976,37.2846415 75.5208974,38.4133946 75.5294118,39.543531 C75.5335344,50.5940172 69.8464333,60.831412 60.5585898,66.4926237 C51.2707463,72.1538355 39.7526799,72.4034927 30.2382353,67.1498254 L22.2970588,71.2880649 C33.2559406,79.4401916 47.6110804,81.0796652 60.0610265,75.6010168 C72.5109725,70.1223684 81.2083572,58.3385395 82.9411765,44.6013792 C83.2970903,41.7485729 83.3503404,38.8648268 83.1,36.0003325 C82.9035882,33.7429333 84.0847407,31.5941731 86.0735294,30.5908692 L90,28.6073993 L90,19.7989899 Z"></path>
                </g>
            </g>
            <g id="text" transform="translate(-0, 28.5)" fill="#FFFFFF" font-family="Helvetica" font-size="48" font-weight="normal">
                <text id="Stellar">
                    <tspan x="0" y="47">Stellar</tspan>
                </text>
            </g>
            <text id="星相运维平台" font-family="PingFangSC-Regular, PingFang SC" font-size="22" font-weight="normal" fill="#FFFFFF">
                <tspan x="2" y="103">星相运维平台</tspan>
            </text>
        </g>
    </g>
</svg>