
<svg width="274.681023px" height="122.679455px" viewBox="0 0 274.681023 122.679455" version="1.1" xmlns="http://www.w3.org/2000/svg" xmlns:xlink="http://www.w3.org/1999/xlink">
    <g id="Page-1" stroke="none" stroke-width="1" fill="none" fill-rule="evenodd">
        <g id="logo-dark">
            <g id="Group" transform="translate(138.0016, -0)">
                <rect id="蒙版" x="16.6794552" y="0" width="120" height="120"></rect>
                <g transform="translate(59.6795, 63) rotate(45) translate(-59.6795, -63)translate(14.6795, 23.6005)" fill="#000000" fill-rule="nonzero" id="Shape">
                    <path d="M14.3205882,42.8060461 C13.313723,33.9084792 16.0744453,24.995143 21.9049682,18.3189301 C27.735491,11.6427172 36.0778716,7.84249742 44.8235294,7.87879624 C49.9206294,7.87303102 54.9379759,9.17477377 59.4176471,11.6652174 L67.3588235,7.51732405 C55.6825347,-1.17999984 40.227892,-2.42895849 27.3642282,4.2851823 C14.5005644,10.9993231 6.40528604,24.5400742 6.41470588,39.3268763 C6.41470588,40.5106977 6.46764706,41.6854823 6.56470588,42.8421933 C6.79071191,45.1319733 5.61533566,47.3275361 3.60882353,48.363681 L1.57821548e-14,50.1710419 L1.57821548e-14,59 L90,12.5869714 L90,3.75801333 L14.3205882,42.8060461 Z M90,19.7989899 L2.99930096e-14,66.1220274 L2.99930096e-14,74.9304368 L75.3176471,36.1626164 C75.4501976,37.2846415 75.5208974,38.4133946 75.5294118,39.543531 C75.5335344,50.5940172 69.8464333,60.831412 60.5585898,66.4926237 C51.2707463,72.1538355 39.7526799,72.4034927 30.2382353,67.1498254 L22.2970588,71.2880649 C33.2559406,79.4401916 47.6110804,81.0796652 60.0610265,75.6010168 C72.5109725,70.1223684 81.2083572,58.3385395 82.9411765,44.6013792 C83.2970903,41.7485729 83.3503404,38.8648268 83.1,36.0003325 C82.9035882,33.7429333 84.0847407,31.5941731 86.0735294,30.5908692 L90,28.6073993 L90,19.7989899 Z"></path>
                </g>
            </g>
            <g id="text" transform="translate(-0, 40.2031)" fill="#000000" fill-rule="nonzero">
                <path d="M13.6185225,36.3046875 C17.2903975,36.3046875 20.5130538,35.484375 23.2864913,33.84375 C26.0599288,32.203125 27.4466475,29.4765625 27.4466475,25.6640625 C27.4466475,22.6015625 26.3528975,20.265625 24.1653975,18.65625 C22.8997725,17.734375 21.1028975,17.0078125 18.7747725,16.4765625 L13.9466475,15.375 C10.6966475,14.625 8.61071005,14 7.68883505,13.5 C6.28258505,12.71875 5.57946005,11.484375 5.57946005,9.796875 C5.57946005,8.265625 6.18102255,6.921875 7.38414755,5.765625 C8.58727255,4.609375 10.563835,4.03125 13.313835,4.03125 C16.720085,4.03125 19.1341475,4.9296875 20.5560225,6.7265625 C21.3216475,7.7109375 21.8216475,9.125 22.0560225,10.96875 L26.438835,10.96875 C26.438835,7.140625 25.1771163,4.35546875 22.6536788,2.61328125 C20.1302413,0.87109375 17.063835,0 13.45446,0 C9.53258505,0 6.50133505,0.9921875 4.36071005,2.9765625 C2.22008505,4.9609375 1.14977255,7.5 1.14977255,10.59375 C1.14977255,13.453125 2.24352255,15.6015625 4.43102255,17.0390625 C5.69664755,17.8671875 7.85289755,18.625 10.8997725,19.3125 L15.563835,20.3671875 C18.095085,20.9453125 19.95446,21.625 21.14196,22.40625 C22.313835,23.203125 22.8997725,24.5390625 22.8997725,26.4140625 C22.8997725,28.9140625 21.5091475,30.6484375 18.7278975,31.6171875 C17.2903975,32.1171875 15.6966475,32.3671875 13.9466475,32.3671875 C10.0403975,32.3671875 7.31383505,31.2265625 5.76696005,28.9453125 C4.95446005,27.7265625 4.49352255,26.140625 4.38414755,24.1875 L0.00133504747,24.1875 C-0.0455399525,27.90625 1.14196005,30.8515625 3.56383505,33.0234375 C5.98571005,35.2109375 9.33727255,36.3046875 13.6185225,36.3046875 Z M38.6966475,35.6953125 C39.3060225,35.6953125 39.8724288,35.6640625 40.3958663,35.6015625 C40.9193038,35.5390625 41.42321,35.4375 41.907585,35.296875 L41.907585,31.96875 C41.595085,32 41.3216475,32.0195312 41.0872725,32.0273438 C40.8528975,32.0351562 40.6341475,32.0390625 40.4310225,32.0390625 C39.6653975,32.0390625 39.1185225,31.953125 38.7903975,31.78125 C38.1966475,31.484375 37.8997725,30.8984375 37.8997725,30.0234375 L37.8997725,13.640625 L41.907585,13.640625 L41.907585,10.1953125 L37.8997725,10.1953125 L37.8997725,3.1875 L33.6341475,3.1875 L33.6341475,10.1953125 L30.23571,10.1953125 L30.23571,13.640625 L33.6341475,13.640625 L33.6341475,30.2578125 C33.6341475,31.8671875 33.98571,33.1757812 34.688835,34.1835938 C35.39196,35.1914062 36.7278975,35.6953125 38.6966475,35.6953125 Z M55.92321,36.1875 C57.20446,36.1875 58.3528975,36.0625 59.3685225,35.8125 C61.2591475,35.375 62.845085,34.53125 64.126335,33.28125 C64.89196,32.5625 65.5833663,31.6367188 66.2005538,30.5039062 C66.8177413,29.3710938 67.1810225,28.34375 67.2903975,27.421875 L63.14196,27.421875 C62.82946,28.53125 62.29821,29.5078125 61.54821,30.3515625 C60.23571,31.8046875 58.4778975,32.53125 56.2747725,32.53125 C53.9153975,32.53125 52.17321,31.7617188 51.04821,30.2226562 C49.92321,28.6835938 49.3216475,26.640625 49.2435225,24.09375 L67.64196,24.09375 C67.64196,21.5625 67.51696,19.71875 67.26696,18.5625 C66.98571,16.875 66.42321,15.3984375 65.57946,14.1328125 C64.70446,12.8046875 63.4310225,11.7226562 61.7591475,10.8867188 C60.0872725,10.0507812 58.36071,9.6328125 56.57946,9.6328125 C53.04821,9.6328125 50.188835,10.890625 48.001335,13.40625 C45.813835,15.921875 44.720085,19.1953125 44.720085,23.2265625 C44.720085,27.3203125 45.8060225,30.5039062 47.9778975,32.7773438 C50.1497725,35.0507812 52.79821,36.1875 55.92321,36.1875 Z M63.3060225,20.7421875 L49.36071,20.7421875 C49.438835,18.5859375 50.1341475,16.8085938 51.4466475,15.4101562 C52.7591475,14.0117188 54.3841475,13.3125 56.3216475,13.3125 C59.0247725,13.3125 60.95446,14.328125 62.11071,16.359375 C62.73571,17.453125 63.1341475,18.9140625 63.3060225,20.7421875 Z M77.157585,35.296875 L77.157585,0.8671875 L72.938835,0.8671875 L72.938835,35.296875 L77.157585,35.296875 Z M87.8216475,35.296875 L87.8216475,0.8671875 L83.6028975,0.8671875 L83.6028975,35.296875 L87.8216475,35.296875 Z M100.899773,36.140625 C102.837273,36.140625 104.61071,35.7265625 106.220085,34.8984375 C107.82946,34.0703125 109.063835,33.09375 109.92321,31.96875 C110.063835,32.96875 110.306023,33.7421875 110.649773,34.2890625 C111.306023,35.3203125 112.36071,35.8359375 113.813835,35.8359375 C114.407585,35.8359375 114.876335,35.8125 115.220085,35.765625 C115.563835,35.71875 116.063835,35.6015625 116.720085,35.4140625 L116.720085,32.296875 C116.45446,32.34375 116.20446,32.3789062 115.970085,32.4023438 C115.73571,32.4257812 115.524773,32.4375 115.337273,32.4375 C114.759148,32.4375 114.380241,32.3046875 114.200554,32.0390625 C114.020866,31.7734375 113.931023,31.421875 113.931023,30.984375 L113.931023,16.5234375 C113.931023,14.1484375 113.01696,12.3984375 111.188835,11.2734375 C109.345085,10.1484375 106.946648,9.5859375 103.993523,9.5859375 C101.446648,9.5859375 99.2083663,10.1914062 97.2786788,11.4023438 C95.3489913,12.6132812 94.345085,14.765625 94.26696,17.859375 L98.20446,17.859375 C98.36071,16.5625 98.6966475,15.5859375 99.2122725,14.9296875 C100.134148,13.7421875 101.696648,13.1484375 103.899773,13.1484375 C105.806023,13.1484375 107.270866,13.4726562 108.294304,14.1210938 C109.317741,14.7695312 109.82946,15.8125 109.82946,17.25 C109.82946,17.953125 109.73571,18.4921875 109.54821,18.8671875 C109.220085,19.5546875 108.571648,19.9609375 107.602898,20.0859375 L100.876335,20.9296875 C98.51696,21.2265625 96.61071,22.015625 95.157585,23.296875 C93.70446,24.578125 92.9778975,26.3828125 92.9778975,28.7109375 C92.9778975,30.8359375 93.7161788,32.6054688 95.1927413,34.0195312 C96.6693038,35.4335938 98.5716475,36.140625 100.899773,36.140625 Z M101.884148,32.5546875 C100.665398,32.5546875 99.61071,32.203125 98.720085,31.5 C97.82946,30.796875 97.3841475,29.8359375 97.3841475,28.6171875 C97.3841475,27.0078125 98.032585,25.8359375 99.32946,25.1015625 C100.095085,24.6640625 101.243523,24.34375 102.774773,24.140625 L105.32946,23.8125 C106.11071,23.71875 106.907585,23.5625 107.720085,23.34375 C108.532585,23.125 109.196648,22.8515625 109.712273,22.5234375 L109.712273,25.921875 C109.712273,28.515625 108.540398,30.3828125 106.196648,31.5234375 C104.806023,32.2109375 103.368523,32.5546875 101.884148,32.5546875 Z M125.181023,35.296875 L125.181023,20.859375 C125.181023,19.078125 125.751335,17.5039062 126.89196,16.1367188 C128.032585,14.7695312 129.665398,14.0859375 131.790398,14.0859375 C132.040398,14.0859375 132.270866,14.09375 132.481804,14.109375 C132.692741,14.125 132.92321,14.15625 133.17321,14.203125 L133.17321,9.75 C132.720085,9.703125 132.399773,9.671875 132.212273,9.65625 C132.024773,9.640625 131.89196,9.6328125 131.813835,9.6328125 C130.14196,9.6328125 128.665398,10.2382812 127.384148,11.4492188 C126.102898,12.6601562 125.29821,13.6875 124.970085,14.53125 L124.970085,10.1953125 L120.962273,10.1953125 L120.962273,35.296875 L125.181023,35.296875 Z" id="Stellar"></path>
            </g>
        </g>
    </g>
</svg>